<svg width="70" height="70" viewBox="0 0 70 70" fill="none" xmlns="http://www.w3.org/2000/svg">
<g filter="url(#filter0_d_345_547)">
<rect x="5" y="4" width="60" height="60" rx="30" fill="#FEF9E5"/>
<path d="M38.0093 42.3867H32.8015C31.7439 42.3867 30.8737 43.2435 30.8871 44.3012V49.509C30.8871 50.5667 31.7439 51.4235 32.8015 51.4235H33.1336C33.3593 51.8259 33.6881 52.1609 34.0862 52.3941C34.4843 52.6272 34.9374 52.7501 35.3987 52.7501C35.8601 52.7501 36.3132 52.6272 36.7113 52.3941C37.1094 52.1609 37.4382 51.8259 37.6639 51.4235H38.0093C39.067 51.4235 39.9238 50.5667 39.9238 49.509V44.3012C39.9238 43.2435 39.067 42.3867 38.0093 42.3867Z" fill="#9B9B9B"/>
<path d="M38.6921 43.5384C39.0134 43.5384 39.2678 43.2975 39.2945 42.9895C39.3882 41.8382 39.8836 39.0401 42.5879 36.0413C43.8785 35.0255 44.9386 33.7471 45.6979 32.2907C46.4573 30.8344 46.8985 29.2333 46.9924 27.5936C47.0192 27.2723 47.0326 27.058 47.0326 26.9242V26.7903C46.9523 20.3909 41.7712 15.25 35.3853 15.25C32.3206 15.2498 29.3796 16.459 27.2013 18.6148C25.0229 20.7706 23.7832 23.6989 23.7515 26.7635C23.7515 26.7635 23.7381 27.0848 23.7917 27.6203C24.0059 31.0208 25.6659 34.0331 28.1962 36.0279C30.9005 39.0401 31.436 41.8382 31.5297 42.9895C31.5565 43.2975 31.8108 43.5384 32.1321 43.5384H38.6921Z" fill="#FCD53F"/>
<path d="M35.3987 26.8979C37.5675 26.8979 39.3347 28.6517 39.3615 30.8205V30.9276C39.3615 30.9678 39.3615 31.0213 39.3481 31.1016C39.2811 32.2262 38.7322 33.2838 37.8486 33.98L37.7549 34.047L37.6746 34.1273C36.202 35.7606 35.8941 39.9108 35.8405 42.1867H34.9703C34.9034 39.9108 34.5821 35.7606 33.1094 34.1273L33.0291 34.047L32.9354 33.98C32.4932 33.6303 32.1307 33.1903 31.8721 32.6893C31.6136 32.1883 31.4649 31.6379 31.436 31.0749C31.436 31.0213 31.4226 30.9811 31.4226 30.9544V30.8339C31.4627 28.6651 33.2433 26.8979 35.3987 26.8979ZM35.3987 25.5591C34.2971 25.5595 33.2229 25.9031 32.3255 26.5421C31.4281 27.1811 30.7521 28.0838 30.3914 29.1248C30.0307 30.1657 30.0032 31.2931 30.3127 32.3504C30.6223 33.4077 31.2536 34.3423 32.1187 35.0243C33.7253 36.8182 33.6449 43.5389 33.6449 43.5389H37.1793C37.1793 43.5389 37.0722 36.8182 38.6921 35.0377C39.8434 34.1273 40.6065 32.7483 40.7002 31.182C40.7136 31.0347 40.7136 30.941 40.7136 30.874V30.8205C40.6995 29.4202 40.1333 28.082 39.1381 27.0968C38.1429 26.1116 36.7991 25.559 35.3987 25.5591Z" fill="#FFB02E"/>
<path d="M40.0391 46.1132C40.1258 46.0981 40.2086 46.066 40.2829 46.0189C40.3572 45.9718 40.4215 45.9105 40.4721 45.8385C40.5227 45.7665 40.5586 45.6853 40.5778 45.5994C40.597 45.5135 40.5991 45.4247 40.584 45.3381C40.5688 45.2514 40.5368 45.1685 40.4897 45.0942C40.4425 45.0199 40.3812 44.9557 40.3092 44.9051C40.2373 44.8545 40.156 44.8186 40.0702 44.7994C39.9843 44.7802 39.8955 44.778 39.8088 44.7932L30.7856 46.3729C30.6989 46.3881 30.616 46.4201 30.5417 46.4672C30.4675 46.5144 30.4032 46.5757 30.3526 46.6477C30.302 46.7196 30.2661 46.8009 30.2469 46.8867C30.2277 46.9726 30.2256 47.0614 30.2407 47.1481C30.2558 47.2348 30.2878 47.3176 30.335 47.3919C30.3821 47.4662 30.4434 47.5305 30.5154 47.5811C30.5874 47.6317 30.6686 47.6676 30.7545 47.6868C30.8403 47.706 30.9292 47.7081 31.0158 47.693L40.0391 46.1132ZM39.9722 48.9916C40.145 48.9589 40.2981 48.8595 40.3982 48.7149C40.4984 48.5702 40.5376 48.392 40.5073 48.2187C40.477 48.0454 40.3798 47.8909 40.2365 47.7888C40.0933 47.6867 39.9156 47.645 39.7419 47.6729L30.8391 49.2393C30.7496 49.2511 30.6634 49.2809 30.5857 49.3269C30.508 49.373 30.4404 49.4342 30.387 49.5071C30.3336 49.5799 30.2955 49.6628 30.275 49.7507C30.2544 49.8387 30.2519 49.9298 30.2676 50.0188C30.2832 50.1077 30.3167 50.1926 30.366 50.2683C30.4152 50.3439 30.4793 50.4088 30.5544 50.4591C30.6294 50.5093 30.7138 50.5439 30.8026 50.5606C30.8913 50.5774 30.9825 50.576 31.0707 50.5566L39.9722 48.9916Z" fill="#D3D3D3"/>
<path d="M32.8413 19.8561C31.3553 22.4265 32.105 25.6396 34.5147 27.0185C36.9245 28.3975 40.0706 27.4469 41.5566 24.8765C43.0427 22.306 42.293 19.0929 39.8832 17.714C37.4734 16.3351 34.3273 17.2856 32.8413 19.8561Z" fill="#FFF478"/>
</g>
<defs>
<filter id="filter0_d_345_547" x="0.92" y="0.92" width="68.16" height="68.16" filterUnits="userSpaceOnUse" color-interpolation-filters="sRGB">
<feFlood flood-opacity="0" result="BackgroundImageFix"/>
<feColorMatrix in="SourceAlpha" type="matrix" values="0 0 0 0 0 0 0 0 0 0 0 0 0 0 0 0 0 0 127 0" result="hardAlpha"/>
<feMorphology radius="0.08" operator="dilate" in="SourceAlpha" result="effect1_dropShadow_345_547"/>
<feOffset dy="1"/>
<feGaussianBlur stdDeviation="2"/>
<feComposite in2="hardAlpha" operator="out"/>
<feColorMatrix type="matrix" values="0 0 0 0 0 0 0 0 0 0 0 0 0 0 0 0 0 0 0.08 0"/>
<feBlend mode="normal" in2="BackgroundImageFix" result="effect1_dropShadow_345_547"/>
<feBlend mode="normal" in="SourceGraphic" in2="effect1_dropShadow_345_547" result="shape"/>
</filter>
</defs>
</svg>
