<svg width="24" height="24" viewBox="0 0 24 24" fill="none" xmlns="http://www.w3.org/2000/svg">
<path d="M15.4971 22.3807C15.6519 22.4602 15.832 22.4749 15.9977 22.4216C16.0797 22.3952 16.1558 22.3529 16.2215 22.2971C16.2872 22.2414 16.3412 22.1732 16.3806 22.0965C16.4199 22.0198 16.4438 21.9361 16.4508 21.8503C16.4578 21.7644 16.4478 21.6779 16.4214 21.5959C16.395 21.5138 16.3527 21.4378 16.297 21.3721C16.2412 21.3064 16.173 21.2523 16.0963 21.213L15.4971 22.3807ZM16.0963 21.213C14.0653 20.1705 13.2381 18.7882 12.8886 17.2612C12.5211 15.654 12.6793 13.9313 12.6793 12.0938H11.3668C11.3668 13.7625 11.1973 15.7545 11.6091 17.5538C12.0388 19.4333 13.0986 21.15 15.4971 22.3807L16.0963 21.213Z" fill="#008463"/>
<path d="M12.0187 6.92765C11.9474 5.0669 11.6339 3.1274 10.4182 2.1089C8.72843 0.694401 6.16418 2.21465 6.52718 4.3004C4.17218 4.0544 2.58443 7.2329 4.95668 8.73065C6.08468 9.44165 7.23968 9.66515 8.59418 9.7259C7.22393 9.8024 6.05843 10.0439 4.91918 10.7624C2.54768 12.2594 4.13468 15.4379 6.49043 15.1919C6.12668 17.2777 8.62268 18.7117 10.3807 17.3834C11.4659 16.5629 11.8582 15.1491 11.9842 13.6596C12.1252 15.1491 12.5339 16.5629 13.6192 17.3834C15.3772 18.7117 17.8724 17.2784 17.5094 15.1919C19.8644 15.4379 21.4522 12.2594 19.0799 10.7624C17.9504 10.0499 16.7744 9.80615 15.4012 9.7274C16.7737 9.66965 17.9399 9.4499 19.0799 8.7299C21.4522 7.23365 19.8652 4.0544 17.5094 4.3004C17.8724 2.2154 15.3082 0.694401 13.6192 2.1089C12.4034 3.1274 12.0892 5.0669 12.0187 6.92765Z" fill="#00D26A"/>
</svg>
