<svg width="43" height="24" viewBox="0 0 43 24" fill="none" xmlns="http://www.w3.org/2000/svg">
<mask id="path-1-outside-1_549_248" maskUnits="userSpaceOnUse" x="0" y="0" width="43" height="24" fill="black">
<rect fill="white" width="43" height="24"/>
<path d="M0.65 0.839999H2.41V18H0.65V0.839999ZM5.72031 12.94C5.72031 11.9133 5.94765 11.004 6.40231 10.212C6.87165 9.42 7.50231 8.79667 8.29431 8.342C9.08631 7.88733 9.97365 7.66 10.9563 7.66C11.9536 7.66 12.841 7.88733 13.6183 8.342C14.4103 8.79667 15.0336 9.42 15.4883 10.212C15.9576 11.004 16.1923 11.9133 16.1923 12.94C16.1923 13.952 15.9576 14.8613 15.4883 15.668C15.0336 16.46 14.4103 17.0833 13.6183 17.538C12.841 17.9927 11.9536 18.22 10.9563 18.22C9.97365 18.22 9.08631 17.9927 8.29431 17.538C7.50231 17.0833 6.87165 16.46 6.40231 15.668C5.94765 14.8613 5.72031 13.952 5.72031 12.94ZM7.50231 12.94C7.50231 13.644 7.64898 14.2673 7.94231 14.81C8.25031 15.3527 8.66098 15.7853 9.17431 16.108C9.70231 16.416 10.2963 16.57 10.9563 16.57C11.6163 16.57 12.203 16.416 12.7163 16.108C13.2443 15.7853 13.655 15.3527 13.9483 14.81C14.2563 14.2673 14.4103 13.644 14.4103 12.94C14.4103 12.236 14.2563 11.6127 13.9483 11.07C13.655 10.5127 13.2443 10.08 12.7163 9.772C12.203 9.464 11.6163 9.31 10.9563 9.31C10.2963 9.31 9.70231 9.464 9.17431 9.772C8.66098 10.08 8.25031 10.5127 7.94231 11.07C7.64898 11.6127 7.50231 12.236 7.50231 12.94ZM18.6101 12.94C18.6101 11.9133 18.8374 11.004 19.2921 10.212C19.7614 9.42 20.3921 8.79667 21.1841 8.342C21.9761 7.88733 22.8634 7.66 23.8461 7.66C24.8434 7.66 25.7307 7.88733 26.5081 8.342C27.3001 8.79667 27.9234 9.42 28.3781 10.212C28.8474 11.004 29.0821 11.9133 29.0821 12.94C29.0821 13.952 28.8474 14.8613 28.3781 15.668C27.9234 16.46 27.3001 17.0833 26.5081 17.538C25.7307 17.9927 24.8434 18.22 23.8461 18.22C22.8634 18.22 21.9761 17.9927 21.1841 17.538C20.3921 17.0833 19.7614 16.46 19.2921 15.668C18.8374 14.8613 18.6101 13.952 18.6101 12.94ZM20.3921 12.94C20.3921 13.644 20.5387 14.2673 20.8321 14.81C21.1401 15.3527 21.5507 15.7853 22.0641 16.108C22.5921 16.416 23.1861 16.57 23.8461 16.57C24.5061 16.57 25.0927 16.416 25.6061 16.108C26.1341 15.7853 26.5447 15.3527 26.8381 14.81C27.1461 14.2673 27.3001 13.644 27.3001 12.94C27.3001 12.236 27.1461 11.6127 26.8381 11.07C26.5447 10.5127 26.1341 10.08 25.6061 9.772C25.0927 9.464 24.5061 9.31 23.8461 9.31C23.1861 9.31 22.5921 9.464 22.0641 9.772C21.5507 10.08 21.1401 10.5127 20.8321 11.07C20.5387 11.6127 20.3921 12.236 20.3921 12.94ZM34.0298 22.84H32.2698V7.88H34.0298V22.84ZM42.4998 12.94C42.4998 14.0253 42.2725 14.964 41.8178 15.756C41.3632 16.548 40.7545 17.1567 39.9918 17.582C39.2438 18.0073 38.4078 18.22 37.4838 18.22C36.6478 18.22 35.9072 18.0073 35.2618 17.582C34.6312 17.1567 34.1325 16.548 33.7658 15.756C33.4138 14.964 33.2378 14.0253 33.2378 12.94C33.2378 11.84 33.4138 10.9013 33.7658 10.124C34.1325 9.332 34.6312 8.72333 35.2618 8.298C35.9072 7.87267 36.6478 7.66 37.4838 7.66C38.4078 7.66 39.2438 7.87267 39.9918 8.298C40.7545 8.72333 41.3632 9.332 41.8178 10.124C42.2725 10.9013 42.4998 11.84 42.4998 12.94ZM40.7178 12.94C40.7178 12.1627 40.5565 11.5027 40.2338 10.96C39.9258 10.4173 39.5078 10.0067 38.9798 9.728C38.4665 9.44933 37.8945 9.31 37.2638 9.31C36.7505 9.31 36.2445 9.44933 35.7458 9.728C35.2472 10.0067 34.8365 10.4173 34.5138 10.96C34.1912 11.5027 34.0298 12.1627 34.0298 12.94C34.0298 13.7173 34.1912 14.3773 34.5138 14.92C34.8365 15.4627 35.2472 15.8733 35.7458 16.152C36.2445 16.4307 36.7505 16.57 37.2638 16.57C37.8945 16.57 38.4665 16.4307 38.9798 16.152C39.5078 15.8733 39.9258 15.4627 40.2338 14.92C40.5565 14.3773 40.7178 13.7173 40.7178 12.94Z"/>
</mask>
<path d="M0.65 0.839999H2.41V18H0.65V0.839999ZM5.72031 12.94C5.72031 11.9133 5.94765 11.004 6.40231 10.212C6.87165 9.42 7.50231 8.79667 8.29431 8.342C9.08631 7.88733 9.97365 7.66 10.9563 7.66C11.9536 7.66 12.841 7.88733 13.6183 8.342C14.4103 8.79667 15.0336 9.42 15.4883 10.212C15.9576 11.004 16.1923 11.9133 16.1923 12.94C16.1923 13.952 15.9576 14.8613 15.4883 15.668C15.0336 16.46 14.4103 17.0833 13.6183 17.538C12.841 17.9927 11.9536 18.22 10.9563 18.22C9.97365 18.22 9.08631 17.9927 8.29431 17.538C7.50231 17.0833 6.87165 16.46 6.40231 15.668C5.94765 14.8613 5.72031 13.952 5.72031 12.94ZM7.50231 12.94C7.50231 13.644 7.64898 14.2673 7.94231 14.81C8.25031 15.3527 8.66098 15.7853 9.17431 16.108C9.70231 16.416 10.2963 16.57 10.9563 16.57C11.6163 16.57 12.203 16.416 12.7163 16.108C13.2443 15.7853 13.655 15.3527 13.9483 14.81C14.2563 14.2673 14.4103 13.644 14.4103 12.94C14.4103 12.236 14.2563 11.6127 13.9483 11.07C13.655 10.5127 13.2443 10.08 12.7163 9.772C12.203 9.464 11.6163 9.31 10.9563 9.31C10.2963 9.31 9.70231 9.464 9.17431 9.772C8.66098 10.08 8.25031 10.5127 7.94231 11.07C7.64898 11.6127 7.50231 12.236 7.50231 12.94ZM18.6101 12.94C18.6101 11.9133 18.8374 11.004 19.2921 10.212C19.7614 9.42 20.3921 8.79667 21.1841 8.342C21.9761 7.88733 22.8634 7.66 23.8461 7.66C24.8434 7.66 25.7307 7.88733 26.5081 8.342C27.3001 8.79667 27.9234 9.42 28.3781 10.212C28.8474 11.004 29.0821 11.9133 29.0821 12.94C29.0821 13.952 28.8474 14.8613 28.3781 15.668C27.9234 16.46 27.3001 17.0833 26.5081 17.538C25.7307 17.9927 24.8434 18.22 23.8461 18.22C22.8634 18.22 21.9761 17.9927 21.1841 17.538C20.3921 17.0833 19.7614 16.46 19.2921 15.668C18.8374 14.8613 18.6101 13.952 18.6101 12.94ZM20.3921 12.94C20.3921 13.644 20.5387 14.2673 20.8321 14.81C21.1401 15.3527 21.5507 15.7853 22.0641 16.108C22.5921 16.416 23.1861 16.57 23.8461 16.57C24.5061 16.57 25.0927 16.416 25.6061 16.108C26.1341 15.7853 26.5447 15.3527 26.8381 14.81C27.1461 14.2673 27.3001 13.644 27.3001 12.94C27.3001 12.236 27.1461 11.6127 26.8381 11.07C26.5447 10.5127 26.1341 10.08 25.6061 9.772C25.0927 9.464 24.5061 9.31 23.8461 9.31C23.1861 9.31 22.5921 9.464 22.0641 9.772C21.5507 10.08 21.1401 10.5127 20.8321 11.07C20.5387 11.6127 20.3921 12.236 20.3921 12.94ZM34.0298 22.84H32.2698V7.88H34.0298V22.84ZM42.4998 12.94C42.4998 14.0253 42.2725 14.964 41.8178 15.756C41.3632 16.548 40.7545 17.1567 39.9918 17.582C39.2438 18.0073 38.4078 18.22 37.4838 18.22C36.6478 18.22 35.9072 18.0073 35.2618 17.582C34.6312 17.1567 34.1325 16.548 33.7658 15.756C33.4138 14.964 33.2378 14.0253 33.2378 12.94C33.2378 11.84 33.4138 10.9013 33.7658 10.124C34.1325 9.332 34.6312 8.72333 35.2618 8.298C35.9072 7.87267 36.6478 7.66 37.4838 7.66C38.4078 7.66 39.2438 7.87267 39.9918 8.298C40.7545 8.72333 41.3632 9.332 41.8178 10.124C42.2725 10.9013 42.4998 11.84 42.4998 12.94ZM40.7178 12.94C40.7178 12.1627 40.5565 11.5027 40.2338 10.96C39.9258 10.4173 39.5078 10.0067 38.9798 9.728C38.4665 9.44933 37.8945 9.31 37.2638 9.31C36.7505 9.31 36.2445 9.44933 35.7458 9.728C35.2472 10.0067 34.8365 10.4173 34.5138 10.96C34.1912 11.5027 34.0298 12.1627 34.0298 12.94C34.0298 13.7173 34.1912 14.3773 34.5138 14.92C34.8365 15.4627 35.2472 15.8733 35.7458 16.152C36.2445 16.4307 36.7505 16.57 37.2638 16.57C37.8945 16.57 38.4665 16.4307 38.9798 16.152C39.5078 15.8733 39.9258 15.4627 40.2338 14.92C40.5565 14.3773 40.7178 13.7173 40.7178 12.94Z" fill="#3B4159"/>
<path d="M0.65 0.839999V0.439999H0.25V0.839999H0.65ZM2.41 0.839999H2.81V0.439999H2.41V0.839999ZM2.41 18V18.4H2.81V18H2.41ZM0.65 18H0.25V18.4H0.65V18ZM0.65 0.839999V1.24H2.41V0.839999V0.439999H0.65V0.839999ZM2.41 0.839999H2.01V18H2.41H2.81V0.839999H2.41ZM2.41 18V17.6H0.65V18V18.4H2.41V18ZM0.65 18H1.05V0.839999H0.65H0.25V18H0.65ZM6.40231 10.212L6.05816 10.0081L6.05541 10.0129L6.40231 10.212ZM8.29431 8.342L8.49346 8.6889L8.29431 8.342ZM13.6183 8.342L13.4164 8.68729L13.4192 8.6889L13.6183 8.342ZM15.4883 10.212L15.1414 10.4112L15.1442 10.4159L15.4883 10.212ZM15.4883 15.668L15.1426 15.4668L15.1414 15.4689L15.4883 15.668ZM13.6183 17.538L13.4192 17.1911L13.4164 17.1927L13.6183 17.538ZM8.29431 17.538L8.49346 17.1911L8.29431 17.538ZM6.40231 15.668L6.05377 15.8645L6.0582 15.8719L6.40231 15.668ZM7.94231 14.81L7.59035 15.0002L7.59444 15.0074L7.94231 14.81ZM9.17431 16.108L8.96133 16.4468L8.97276 16.4535L9.17431 16.108ZM12.7163 16.108L12.9221 16.451L12.9249 16.4493L12.7163 16.108ZM13.9483 14.81L13.6004 14.6125L13.5964 14.6198L13.9483 14.81ZM13.9483 11.07L13.5942 11.2564L13.6004 11.2674L13.9483 11.07ZM12.7163 9.772L12.5105 10.115L12.5148 10.1175L12.7163 9.772ZM9.17431 9.772L8.97275 9.42646L8.96851 9.429L9.17431 9.772ZM7.94231 11.07L7.5922 10.8765L7.59043 10.8798L7.94231 11.07ZM5.72031 12.94H6.12031C6.12031 11.9744 6.3335 11.1353 6.74921 10.4111L6.40231 10.212L6.05541 10.0129C5.56179 10.8727 5.32031 11.8523 5.32031 12.94H5.72031ZM6.40231 10.212L6.74643 10.4159C7.18088 9.68278 7.76181 9.10892 8.49346 8.6889L8.29431 8.342L8.09517 7.9951C7.24281 8.48441 6.56241 9.15722 6.0582 10.0081L6.40231 10.212ZM8.29431 8.342L8.49346 8.6889C9.22027 8.27166 10.038 8.06 10.9563 8.06V7.66V7.26C9.90925 7.26 8.95236 7.50301 8.09517 7.9951L8.29431 8.342ZM10.9563 7.66V8.06C11.8905 8.06 12.7067 8.2722 13.4164 8.68727L13.6183 8.342L13.8203 7.99673C12.9752 7.50246 12.0168 7.26 10.9563 7.26V7.66ZM13.6183 8.342L13.4192 8.6889C14.1497 9.10828 14.722 9.68062 15.1414 10.4111L15.4883 10.212L15.8352 10.0129C15.3453 9.15938 14.6709 8.48505 13.8175 7.9951L13.6183 8.342ZM15.4883 10.212L15.1442 10.4159C15.5729 11.1393 15.7923 11.9766 15.7923 12.94H16.1923H16.5923C16.5923 11.8501 16.3424 10.8687 15.8324 10.0081L15.4883 10.212ZM16.1923 12.94H15.7923C15.7923 13.8875 15.5734 14.7264 15.1426 15.4668L15.4883 15.668L15.8341 15.8692C16.3419 14.9963 16.5923 14.0165 16.5923 12.94H16.1923ZM15.4883 15.668L15.1414 15.4689C14.722 16.1994 14.1497 16.7717 13.4192 17.1911L13.6183 17.538L13.8175 17.8849C14.6709 17.3949 15.3453 16.7206 15.8352 15.8671L15.4883 15.668ZM13.6183 17.538L13.4164 17.1927C12.7067 17.6078 11.8905 17.82 10.9563 17.82V18.22V18.62C12.0168 18.62 12.9752 18.3775 13.8203 17.8833L13.6183 17.538ZM10.9563 18.22V17.82C10.038 17.82 9.22027 17.6083 8.49346 17.1911L8.29431 17.538L8.09517 17.8849C8.95236 18.377 9.90925 18.62 10.9563 18.62V18.22ZM8.29431 17.538L8.49346 17.1911C7.76181 16.7711 7.18088 16.1972 6.74643 15.4641L6.40231 15.668L6.0582 15.8719C6.56241 16.7228 7.24281 17.3956 8.09517 17.8849L8.29431 17.538ZM6.40231 15.668L6.75077 15.4716C6.33298 14.7303 6.12031 13.8898 6.12031 12.94H5.72031H5.32031C5.32031 14.0142 5.56231 14.9923 6.05385 15.8644L6.40231 15.668ZM7.50231 12.94H7.10231C7.10231 13.7009 7.2613 14.3913 7.59043 15.0002L7.94231 14.81L8.2942 14.6198C8.03666 14.1434 7.90231 13.5871 7.90231 12.94H7.50231ZM7.94231 14.81L7.59444 15.0074C7.93409 15.6059 8.39046 16.0877 8.96144 16.4467L9.17431 16.108L9.38718 15.7693C8.9315 15.4829 8.56654 15.0995 8.29019 14.6126L7.94231 14.81ZM9.17431 16.108L8.97276 16.4535C9.56679 16.8 10.2313 16.97 10.9563 16.97V16.57V16.17C10.3613 16.17 9.83784 16.032 9.37586 15.7625L9.17431 16.108ZM10.9563 16.57V16.97C11.6812 16.97 12.3404 16.8 12.9221 16.451L12.7163 16.108L12.5105 15.765C12.0656 16.032 11.5515 16.17 10.9563 16.17V16.57ZM12.7163 16.108L12.9249 16.4493C13.513 16.0899 13.9732 15.6052 14.3002 15.0002L13.9483 14.81L13.5964 14.6198C13.3368 15.1001 12.9757 15.4807 12.5077 15.7667L12.7163 16.108ZM13.9483 14.81L14.2962 15.0074C14.6426 14.3972 14.8103 13.7042 14.8103 12.94H14.4103H14.0103C14.0103 13.5838 13.8701 14.1375 13.6004 14.6126L13.9483 14.81ZM14.4103 12.94H14.8103C14.8103 12.1758 14.6426 11.4828 14.2962 10.8726L13.9483 11.07L13.6004 11.2674C13.8701 11.7425 14.0103 12.2962 14.0103 12.94H14.4103ZM13.9483 11.07L14.3023 10.8837C13.9752 10.2622 13.5126 9.77343 12.9179 9.42649L12.7163 9.772L12.5148 10.1175C12.976 10.3866 13.3348 10.7631 13.5943 11.2563L13.9483 11.07ZM12.7163 9.772L12.9221 9.429C12.3404 9.07995 11.6812 8.91 10.9563 8.91V9.31V9.71C11.5515 9.71 12.0656 9.84805 12.5105 10.115L12.7163 9.772ZM10.9563 9.31V8.91C10.2313 8.91 9.56679 9.07997 8.97276 9.42649L9.17431 9.772L9.37586 10.1175C9.83784 9.84803 10.3613 9.71 10.9563 9.71V9.31ZM9.17431 9.772L8.96851 9.429C8.39088 9.77558 7.93205 10.2616 7.59222 10.8765L7.94231 11.07L8.29241 11.2635C8.56857 10.7637 8.93108 10.3844 9.38011 10.115L9.17431 9.772ZM7.94231 11.07L7.59043 10.8798C7.2613 11.4887 7.10231 12.1791 7.10231 12.94H7.50231H7.90231C7.90231 12.2929 8.03666 11.7366 8.2942 11.2602L7.94231 11.07ZM19.2921 10.212L18.9479 10.0081L18.9452 10.0129L19.2921 10.212ZM21.1841 8.342L21.3832 8.6889L21.1841 8.342ZM26.5081 8.342L26.3061 8.68729L26.3089 8.6889L26.5081 8.342ZM28.3781 10.212L28.0311 10.4112L28.034 10.4159L28.3781 10.212ZM28.3781 15.668L28.0323 15.4668L28.0312 15.4689L28.3781 15.668ZM26.5081 17.538L26.3089 17.1911L26.3061 17.1927L26.5081 17.538ZM21.1841 17.538L21.3832 17.1911L21.1841 17.538ZM19.2921 15.668L18.9435 15.8645L18.948 15.8719L19.2921 15.668ZM20.8321 14.81L20.4801 15.0002L20.4842 15.0074L20.8321 14.81ZM22.0641 16.108L21.8511 16.4468L21.8625 16.4535L22.0641 16.108ZM25.6061 16.108L25.8119 16.451L25.8147 16.4493L25.6061 16.108ZM26.8381 14.81L26.4901 14.6125L26.4862 14.6198L26.8381 14.81ZM26.8381 11.07L26.4839 11.2564L26.4902 11.2674L26.8381 11.07ZM25.6061 9.772L25.4003 10.115L25.4045 10.1175L25.6061 9.772ZM22.0641 9.772L21.8625 9.42646L21.8583 9.429L22.0641 9.772ZM20.8321 11.07L20.482 10.8765L20.4802 10.8798L20.8321 11.07ZM18.6101 12.94H19.0101C19.0101 11.9744 19.2233 11.1353 19.639 10.4111L19.2921 10.212L18.9452 10.0129C18.4516 10.8727 18.2101 11.8523 18.2101 12.94H18.6101ZM19.2921 10.212L19.6362 10.4159C20.0706 9.68278 20.6516 9.10892 21.3832 8.6889L21.1841 8.342L20.9849 7.9951C20.1326 8.48441 19.4522 9.15722 18.948 10.0081L19.2921 10.212ZM21.1841 8.342L21.3832 8.6889C22.11 8.27166 22.9278 8.06 23.8461 8.06V7.66V7.26C22.799 7.26 21.8421 7.50301 20.9849 7.9951L21.1841 8.342ZM23.8461 7.66V8.06C24.7803 8.06 25.5965 8.2722 26.3061 8.68727L26.5081 8.342L26.71 7.99673C25.865 7.50246 24.9066 7.26 23.8461 7.26V7.66ZM26.5081 8.342L26.3089 8.6889C27.0395 9.10828 27.6118 9.68062 28.0312 10.4111L28.3781 10.212L28.725 10.0129C28.235 9.15938 27.5607 8.48505 26.7072 7.9951L26.5081 8.342ZM28.3781 10.212L28.034 10.4159C28.4626 11.1393 28.6821 11.9766 28.6821 12.94H29.0821H29.4821C29.4821 11.8501 29.2322 10.8687 28.7222 10.0081L28.3781 10.212ZM29.0821 12.94H28.6821C28.6821 13.8875 28.4632 14.7264 28.0323 15.4668L28.3781 15.668L28.7238 15.8692C29.2317 14.9963 29.4821 14.0165 29.4821 12.94H29.0821ZM28.3781 15.668L28.0312 15.4689C27.6118 16.1994 27.0395 16.7717 26.3089 17.1911L26.5081 17.538L26.7072 17.8849C27.5607 17.3949 28.235 16.7206 28.725 15.8671L28.3781 15.668ZM26.5081 17.538L26.3061 17.1927C25.5965 17.6078 24.7803 17.82 23.8461 17.82V18.22V18.62C24.9066 18.62 25.865 18.3775 26.71 17.8833L26.5081 17.538ZM23.8461 18.22V17.82C22.9278 17.82 22.11 17.6083 21.3832 17.1911L21.1841 17.538L20.9849 17.8849C21.8421 18.377 22.799 18.62 23.8461 18.62V18.22ZM21.1841 17.538L21.3832 17.1911C20.6516 16.7711 20.0706 16.1972 19.6362 15.4641L19.2921 15.668L18.948 15.8719C19.4522 16.7228 20.1326 17.3956 20.9849 17.8849L21.1841 17.538ZM19.2921 15.668L19.6405 15.4716C19.2227 14.7303 19.0101 13.8898 19.0101 12.94H18.6101H18.2101C18.2101 14.0142 18.4521 14.9923 18.9436 15.8644L19.2921 15.668ZM20.3921 12.94H19.9921C19.9921 13.7009 20.1511 14.3913 20.4802 15.0002L20.8321 14.81L21.184 14.6198C20.9264 14.1434 20.7921 13.5871 20.7921 12.94H20.3921ZM20.8321 14.81L20.4842 15.0074C20.8239 15.6059 21.2802 16.0877 21.8512 16.4467L22.0641 16.108L22.2769 15.7693C21.8213 15.4829 21.4563 15.0995 21.18 14.6126L20.8321 14.81ZM22.0641 16.108L21.8625 16.4535C22.4566 16.8 23.1211 16.97 23.8461 16.97V16.57V16.17C23.2511 16.17 22.7276 16.032 22.2656 15.7625L22.0641 16.108ZM23.8461 16.57V16.97C24.5709 16.97 25.2301 16.8 25.8119 16.451L25.6061 16.108L25.4003 15.765C24.9554 16.032 24.4412 16.17 23.8461 16.17V16.57ZM25.6061 16.108L25.8147 16.4493C26.4027 16.0899 26.8629 15.6052 27.19 15.0002L26.8381 14.81L26.4862 14.6198C26.2266 15.1001 25.8654 15.4807 25.3975 15.7667L25.6061 16.108ZM26.8381 14.81L27.186 15.0074C27.5323 14.3972 27.7001 13.7042 27.7001 12.94H27.3001H26.9001C26.9001 13.5838 26.7598 14.1375 26.4902 14.6126L26.8381 14.81ZM27.3001 12.94H27.7001C27.7001 12.1758 27.5323 11.4828 27.186 10.8726L26.8381 11.07L26.4902 11.2674C26.7598 11.7425 26.9001 12.2962 26.9001 12.94H27.3001ZM26.8381 11.07L27.192 10.8837C26.8649 10.2622 26.4024 9.77343 25.8076 9.42649L25.6061 9.772L25.4045 10.1175C25.8658 10.3866 26.2246 10.7631 26.4841 11.2563L26.8381 11.07ZM25.6061 9.772L25.8119 9.429C25.2301 9.07995 24.5709 8.91 23.8461 8.91V9.31V9.71C24.4412 9.71 24.9554 9.84805 25.4003 10.115L25.6061 9.772ZM23.8461 9.31V8.91C23.1211 8.91 22.4566 9.07997 21.8625 9.42649L22.0641 9.772L22.2656 10.1175C22.7276 9.84803 23.2511 9.71 23.8461 9.71V9.31ZM22.0641 9.772L21.8583 9.429C21.2806 9.77558 20.8218 10.2616 20.482 10.8765L20.8321 11.07L21.1822 11.2635C21.4583 10.7637 21.8208 10.3844 22.2699 10.115L22.0641 9.772ZM20.8321 11.07L20.4802 10.8798C20.1511 11.4887 19.9921 12.1791 19.9921 12.94H20.3921H20.7921C20.7921 12.2929 20.9264 11.7366 21.184 11.2602L20.8321 11.07ZM34.0298 22.84V23.24H34.4298V22.84H34.0298ZM32.2698 22.84H31.8698V23.24H32.2698V22.84ZM32.2698 7.88V7.48H31.8698V7.88H32.2698ZM34.0298 7.88H34.4298V7.48H34.0298V7.88ZM41.8178 15.756L41.4709 15.5569L41.8178 15.756ZM39.9918 17.582L39.797 17.2326L39.7941 17.2343L39.9918 17.582ZM35.2618 17.582L35.0382 17.9136L35.0417 17.916L35.2618 17.582ZM33.7658 15.756L33.4003 15.9185L33.4029 15.924L33.7658 15.756ZM33.7658 10.124L33.4028 9.95595L33.4015 9.959L33.7658 10.124ZM35.2618 8.298L35.0417 7.964L35.0382 7.96637L35.2618 8.298ZM39.9918 8.298L39.7941 8.64573L39.797 8.64735L39.9918 8.298ZM41.8178 10.124L41.4709 10.3232L41.4726 10.326L41.8178 10.124ZM40.2338 10.96L39.8859 11.1575L39.89 11.1644L40.2338 10.96ZM38.9798 9.728L38.789 10.0796L38.7931 10.0818L38.9798 9.728ZM35.7458 9.728L35.5507 9.37882L35.7458 9.728ZM34.5138 10.96L34.17 10.7556L34.5138 10.96ZM34.5138 14.92L34.17 15.1244L34.5138 14.92ZM35.7458 16.152L35.5507 16.5012L35.7458 16.152ZM38.9798 16.152L38.7931 15.7982L38.789 15.8005L38.9798 16.152ZM40.2338 14.92L39.89 14.7155L39.886 14.7226L40.2338 14.92ZM34.0298 22.84V22.44H32.2698V22.84V23.24H34.0298V22.84ZM32.2698 22.84H32.6698V7.88H32.2698H31.8698V22.84H32.2698ZM32.2698 7.88V8.28H34.0298V7.88V7.48H32.2698V7.88ZM34.0298 7.88H33.6298V22.84H34.0298H34.4298V7.88H34.0298ZM42.4998 12.94H42.0998C42.0998 13.9687 41.8848 14.836 41.4709 15.5569L41.8178 15.756L42.1647 15.9551C42.6602 15.092 42.8998 14.082 42.8998 12.94H42.4998ZM41.8178 15.756L41.4709 15.5569C41.0507 16.2889 40.4933 16.8443 39.797 17.2327L39.9918 17.582L40.1867 17.9313C41.0157 17.469 41.6757 16.8071 42.1647 15.9551L41.8178 15.756ZM39.9918 17.582L39.7941 17.2343C39.1108 17.6228 38.3438 17.82 37.4838 17.82V18.22V18.62C38.4719 18.62 39.3769 18.3918 40.1896 17.9297L39.9918 17.582ZM37.4838 18.22V17.82C36.7194 17.82 36.0566 17.6268 35.482 17.248L35.2618 17.582L35.0417 17.916C35.7578 18.3879 36.5763 18.62 37.4838 18.62V18.22ZM35.2618 17.582L35.4855 17.2504C34.9238 16.8716 34.4694 16.3237 34.1288 15.5879L33.7658 15.756L33.4029 15.924C33.7956 16.7723 34.3385 17.4418 35.0382 17.9136L35.2618 17.582ZM33.7658 15.756L34.1314 15.5935C33.8071 14.8639 33.6378 13.983 33.6378 12.94H33.2378H32.8378C32.8378 14.0676 33.0206 15.0641 33.4003 15.9185L33.7658 15.756ZM33.2378 12.94H33.6378C33.6378 11.8811 33.8074 11.0018 34.1302 10.289L33.7658 10.124L33.4015 9.959C33.0202 10.8009 32.8378 11.7989 32.8378 12.94H33.2378ZM33.7658 10.124L34.1288 10.292C34.4694 9.55632 34.9238 9.00844 35.4855 8.62963L35.2618 8.298L35.0382 7.96637C34.3385 8.43822 33.7956 9.10768 33.4029 9.95595L33.7658 10.124ZM35.2618 8.298L35.482 8.63198C36.0566 8.25325 36.7194 8.06 37.4838 8.06V7.66V7.26C36.5763 7.26 35.7578 7.49209 35.0417 7.96402L35.2618 8.298ZM37.4838 7.66V8.06C38.3438 8.06 39.1108 8.25717 39.7941 8.64572L39.9918 8.298L40.1896 7.95028C39.3769 7.48816 38.4719 7.26 37.4838 7.26V7.66ZM39.9918 8.298L39.797 8.64735C40.4933 9.03568 41.0507 9.59107 41.4709 10.3231L41.8178 10.124L42.1647 9.92485C41.6757 9.07293 41.0157 8.41099 40.1867 7.94865L39.9918 8.298ZM41.8178 10.124L41.4726 10.326C41.8842 11.0298 42.0998 11.8953 42.0998 12.94H42.4998H42.8998C42.8998 11.7847 42.6608 10.7729 42.1631 9.92205L41.8178 10.124ZM40.7178 12.94H41.1178C41.1178 12.1073 40.9447 11.3729 40.5777 10.7556L40.2338 10.96L39.89 11.1644C40.1683 11.6324 40.3178 12.2181 40.3178 12.94H40.7178ZM40.2338 10.96L40.5817 10.7626C40.2378 10.1566 39.7652 9.69022 39.1665 9.37425L38.9798 9.728L38.7931 10.0818C39.2505 10.3231 39.6139 10.678 39.886 11.1574L40.2338 10.96ZM38.9798 9.728L39.1707 9.37646C38.5941 9.06348 37.9557 8.91 37.2638 8.91V9.31V9.71C37.8333 9.71 38.3389 9.83518 38.789 10.0795L38.9798 9.728ZM37.2638 9.31V8.91C36.6747 8.91 36.1021 9.07067 35.5507 9.37882L35.7458 9.728L35.941 10.0772C36.3869 9.828 36.8263 9.71 37.2638 9.71V9.31ZM35.7458 9.728L35.5507 9.37882C34.9843 9.69534 34.5248 10.1589 34.17 10.7556L34.5138 10.96L34.8577 11.1644C35.1482 10.6757 35.51 10.318 35.941 10.0772L35.7458 9.728ZM34.5138 10.96L34.17 10.7556C33.803 11.3729 33.6298 12.1073 33.6298 12.94H34.0298H34.4298C34.4298 12.2181 34.5794 11.6324 34.8577 11.1644L34.5138 10.96ZM34.0298 12.94H33.6298C33.6298 13.7727 33.803 14.5071 34.17 15.1244L34.5138 14.92L34.8577 14.7156C34.5794 14.2476 34.4298 13.6619 34.4298 12.94H34.0298ZM34.5138 14.92L34.17 15.1244C34.5248 15.7211 34.9843 16.1847 35.5507 16.5012L35.7458 16.152L35.941 15.8028C35.51 15.562 35.1482 15.2043 34.8577 14.7156L34.5138 14.92ZM35.7458 16.152L35.5507 16.5012C36.1021 16.8093 36.6747 16.97 37.2638 16.97V16.57V16.17C36.8263 16.17 36.3869 16.052 35.941 15.8028L35.7458 16.152ZM37.2638 16.57V16.97C37.9557 16.97 38.5941 16.8165 39.1707 16.5035L38.9798 16.152L38.789 15.8005C38.3389 16.0448 37.8333 16.17 37.2638 16.17V16.57ZM38.9798 16.152L39.1665 16.5058C39.7652 16.1898 40.2378 15.7234 40.5817 15.1174L40.2338 14.92L39.886 14.7226C39.6139 15.202 39.2505 15.5569 38.7931 15.7982L38.9798 16.152ZM40.2338 14.92L40.5777 15.1244C40.9447 14.5071 41.1178 13.7727 41.1178 12.94H40.7178H40.3178C40.3178 13.6619 40.1683 14.2476 39.89 14.7156L40.2338 14.92Z" fill="#3B4159" mask="url(#path-1-outside-1_549_248)"/>
</svg>
