<svg width="104" height="104" viewBox="0 0 104 104" fill="none" xmlns="http://www.w3.org/2000/svg">
<rect x="1.2" y="1.2" width="101.6" height="101.6" rx="50.8" fill="white"/>
<rect x="1.2" y="1.2" width="101.6" height="101.6" rx="50.8" stroke="#EBEBEB" stroke-width="1.6"/>
<path d="M46.8775 42.9897L49.6703 43.1955C54.1388 43.3425 57.108 45.7238 57.7547 50.0159L61.4589 65.5968C61.5177 65.8907 61.6647 66.1553 61.8411 66.3905L73.6884 82.4124L69.6609 84.97L57.5196 73.005C55.4029 70.9766 53.6096 69.3009 52.8747 67.684L49.4057 55.0723L46.8775 42.9897Z" fill="#636363"/>
<path d="M44.4668 52.75L40.7333 64.2152C40.0572 66.1261 39.675 68.2133 39.3516 71.1237L37.7053 86.3812L41.4977 89.7914L47.4654 69.7714L56.7846 59.1881C58.3133 57.4243 58.8718 55.0724 58.4603 52.7794L51.6047 51.3301L44.4668 52.7794V52.75Z" fill="#9B9B9B"/>
<path d="M75.7757 84.0585L72.9241 81.3833L68.2498 83.5293L66.3096 92.4957C66.1626 93.4952 67.3973 94.0832 68.1028 93.3483L75.8051 85.0874C76.0697 84.7935 76.0697 84.3231 75.7757 84.0585ZM40.3218 93.2307L41.5859 89.5265L37.7348 86.1458L28.7684 88.0566C27.7689 88.3212 27.7395 89.7029 28.7096 90.0263L39.4104 93.6716C39.7926 93.8186 40.2042 93.6128 40.3218 93.2307Z" fill="#533566"/>
<path d="M63.996 54.0847C63.9058 53.8064 63.8225 53.535 63.7461 53.2704C63.6794 53.0254 63.6128 52.8029 63.5462 52.603C59.8273 41.8081 52.1692 37.2103 51.3813 36.7399L51.3166 36.6988C50.6681 36.357 50.1808 35.7731 49.9606 35.0739C49.7404 34.3747 49.8051 33.6169 50.1407 32.9652C50.8463 31.6129 52.5219 31.0837 53.8449 31.7893C54.2564 31.9951 64.1047 37.2573 68.7496 50.7804L68.9201 51.2596C69.0495 51.6123 69.17 51.9445 69.2494 52.2503L70.1313 54.4551L70.1519 54.508C70.39 55.1695 70.8339 56.3836 70.7193 57.0421C70.5723 57.8359 69.2494 58.7178 68.1322 59.0706C68.1322 59.0706 66.7211 59.5116 65.5158 59.2176C64.6045 59.0118 64.7515 57.9535 64.7515 57.9535C64.7515 57.9535 64.4281 57.6889 63.605 57.1009C62.5378 56.3248 63.5932 54.6433 63.996 54.0847ZM48.7061 37.2779C48.7825 36.559 48.5702 35.8393 48.1159 35.2769C47.6616 34.7146 47.0026 34.3557 46.2837 34.2793C45.5648 34.2029 44.8451 34.4152 44.2827 34.8695C43.7204 35.3238 43.3615 35.9828 43.2851 36.7017L43.2822 36.734L43.2469 36.9516C43.1874 37.2782 43.1168 37.6028 43.0352 37.9246C42.712 39.1734 42.272 40.3889 41.7211 41.5553C40.3777 44.4363 37.8994 48.2169 33.3574 51.7329C32.7518 51.5771 30.7351 51.1655 30.3853 52.4855C30.1207 53.4556 30.0031 53.8378 30.0031 53.8378C30.0031 53.8378 28.9742 54.0729 29.1212 55.0137C29.2976 56.219 30.2089 57.3655 30.2089 57.3655C30.9439 58.2768 32.2374 59.1588 33.0017 59.0118C33.5955 58.8824 34.4187 58.1857 34.9655 57.7183L35.1772 57.5419L36.8528 55.9191C42.0622 51.8446 45.0108 47.3967 46.66 43.8601C47.5214 42.011 48.0299 40.4205 48.321 39.2652C48.4829 38.6318 48.6095 37.99 48.7002 37.3426L48.7032 37.2985V37.2838L48.7061 37.2779Z" fill="#FFD7C2"/>
<path d="M51.199 25.0574L52.1398 30.8488L46.2014 31.8777L45.29 25.9687L51.199 25.0574Z" fill="#F4C6AD"/>
<path d="M46.3778 45.1945C48.1711 41.7843 49.053 38.6976 49.4646 36.4633C49.8174 34.6112 48.4063 32.8768 46.5248 32.7886H46.4072C44.9961 32.7886 44.2318 33.4941 43.9672 34.9052C43.8202 35.7284 43.144 37.1395 42.7619 38.3154C42.3209 39.6971 41.7329 41.0494 41.0274 42.3723C40.9098 42.6075 40.998 42.8721 41.2332 42.9897L45.7605 45.3709C45.9956 45.5179 46.2602 45.4297 46.3778 45.1945Z" fill="#0092E7"/>
<path d="M49.5233 30.496C46.0543 31.3485 43.9671 32.5538 43.0558 37.5221C41.968 43.4604 44.4375 52.7796 44.4375 52.7796H58.4603L56.6964 36.1992C56.3142 32.6714 53.3744 29.5552 49.5233 30.496Z" fill="#00A6ED"/>
<path d="M61.3707 37.7279C58.7249 34.8175 56.1085 32.9361 54.1095 31.7601C52.4632 30.7606 50.3171 31.4956 49.5822 33.2594L49.5234 33.377C49.0824 34.7587 49.641 36.258 50.9051 36.993C51.6694 37.4339 52.5808 38.0219 53.5509 38.8156C54.7268 39.727 55.8145 40.7559 56.8141 41.873C56.9904 42.0788 57.2844 42.0788 57.4902 41.9024L61.3413 38.4041C61.5471 38.2277 61.5471 37.9337 61.3707 37.7279Z" fill="#3BC6F6"/>
<path d="M47.9064 14.4152L44.6433 14.3564C41.8505 14.2976 39.5574 16.5318 39.4986 19.2952V20.7063C39.4986 21.1473 39.381 21.5883 39.1458 21.9704C38.4403 23.0875 38.1169 23.2051 38.0875 23.7637C38.0287 24.6456 38.8519 24.8808 39.234 24.9396C39.3516 24.969 39.4398 25.0572 39.4398 25.1748C39.4692 28.291 39.9984 30.5252 43.7319 30.584C45.9956 30.6134 49.6115 29.5551 50.6992 26.8799L51.7282 23.2933L52.9041 19.5304C52.9041 16.767 50.6698 14.474 47.9064 14.4152Z" fill="#FFD7C2"/>
<path d="M40.7333 22.2058C40.5569 22.2058 40.3806 22.0294 40.3806 21.7942V21.7648C40.41 20.8535 41.2037 20.3243 41.968 20.3537C42.7324 20.3537 43.5261 20.9123 43.4967 21.8236V21.853C43.4967 22.0882 43.3203 22.2646 43.144 22.2646L40.7333 22.2058Z" fill="white"/>
<path d="M40.4393 22.2352C40.4086 22.0899 40.389 21.9424 40.3806 21.7942C40.3806 21.118 40.8215 20.5889 41.3507 20.5889C41.8798 20.5889 42.2914 21.1474 42.2914 21.8236C42.2914 21.9706 42.262 22.1176 42.2326 22.2645L40.4393 22.2352Z" fill="#7D4533"/>
<path d="M40.7539 22.235C40.6767 22.1009 40.6361 21.9488 40.6363 21.7941C40.6363 21.4119 40.9009 21.1179 41.1949 21.1179C41.4888 21.1179 41.724 21.4413 41.724 21.8235C41.724 21.9999 41.6711 22.1175 41.6123 22.235H40.7539Z" fill="black"/>
<path d="M41.0979 21.359C41.1332 21.2326 41.0744 21.1062 40.9657 21.0738C40.8569 21.0444 40.7393 21.1179 40.7011 21.2443C40.6658 21.3678 40.7246 21.4942 40.8363 21.5266C40.9451 21.556 41.0597 21.4825 41.0979 21.359Z" fill="white"/>
<path d="M42.5795 25.1808C42.7559 25.2396 42.8471 25.4336 42.7853 25.61C42.6253 26.0626 42.2932 26.4337 41.8611 26.6429C41.429 26.8521 40.9318 26.8823 40.4776 26.7271C40.4023 26.6914 40.3428 26.6292 40.3106 26.5523C40.2784 26.4755 40.2757 26.3894 40.303 26.3107C40.3303 26.232 40.3858 26.1661 40.4587 26.1258C40.5316 26.0855 40.6169 26.0735 40.6981 26.0921C41.286 26.2979 41.9475 25.9745 42.1503 25.3866C42.1803 25.3026 42.2422 25.2339 42.3226 25.1953C42.403 25.1568 42.4953 25.1516 42.5795 25.1808Z" fill="#990838"/>
<path d="M43.3174 20.242C43.1716 20.2472 43.0291 20.1979 42.9176 20.1038C42.4215 19.7559 41.8137 19.605 41.2125 19.6805C41.1078 19.6914 41.0021 19.6767 40.9045 19.6375C40.8068 19.5983 40.7202 19.5359 40.6522 19.4557C40.5841 19.3754 40.5366 19.2798 40.5139 19.1771C40.4911 19.0744 40.4938 18.9677 40.5216 18.8662C40.5577 18.7445 40.6288 18.6362 40.726 18.5546C40.8233 18.4731 40.9423 18.422 41.0684 18.4076C42.0033 18.3017 42.9499 18.5516 43.7142 19.1043C43.818 19.1866 43.8936 19.2992 43.9305 19.4264C43.9673 19.5536 43.9637 19.6891 43.9201 19.8142C43.8765 19.9393 43.795 20.0476 43.687 20.1243C43.579 20.2009 43.4498 20.2421 43.3174 20.242Z" fill="#212121"/>
<path d="M52.0222 12.2986C54.08 12.7984 55.1383 14.6798 55.1383 16.6495C55.1383 16.6495 55.1383 18.237 54.8738 19.5893C54.7268 20.3536 54.5504 21.1474 54.374 21.7941C54.1976 22.5291 53.786 23.5286 53.3451 24.146C52.9335 24.7045 52.0516 25.2337 51.2284 25.3219C50.5052 25.3954 49.3176 24.9015 49.0089 23.9931C49.256 23.8172 49.4599 23.5873 49.6051 23.321C49.7503 23.0546 49.8329 22.7586 49.8467 22.4556C49.8781 22.026 49.772 21.5976 49.5437 21.2324C49.3153 20.8672 48.9767 20.5841 48.5767 20.4242C48.4455 20.3439 48.2955 20.2993 48.1416 20.2948L47.8183 20.2654C47.6668 20.2562 47.5188 20.2167 47.383 20.1492C47.2471 20.0816 47.1263 19.9875 47.0275 19.8723C46.9288 19.7571 46.8542 19.6233 46.8083 19.4787C46.7623 19.3341 46.7459 19.1818 46.7599 19.0307C46.8187 18.237 46.2308 17.5608 45.437 17.5608L40.0278 17.2081C39.9984 17.1787 39.9396 17.1787 39.9102 17.1787C39.3471 17.0752 38.8384 16.777 38.4729 16.3364C38.1075 15.8957 37.9086 15.3405 37.9112 14.768C37.9406 13.3863 39.0871 12.328 40.4394 12.4162C40.8509 12.4456 41.2331 12.2398 41.4683 11.9458C41.8262 11.4947 42.3288 11.1811 42.8913 11.0579C43.4537 10.9347 44.0414 11.0095 44.5551 11.2697C45.3488 11.6518 46.2602 11.7106 47.0833 11.4167C47.4067 11.3285 47.7301 11.2697 48.0828 11.2991C48.5238 11.3285 48.9354 11.4461 49.2882 11.6812C49.7879 11.9752 50.3759 12.1516 50.9638 12.1516C51.3166 12.1516 51.64 12.2104 52.0222 12.2986Z" fill="#212121"/>
</svg>
